<?xml version="1.0" encoding="utf-8"?>
<svg version="1.1" id="Layer_1" xmlns="http://www.w3.org/2000/svg" xmlns:xlink="http://www.w3.org/1999/xlink" x="0px" y="0px"
	 viewBox="0 0 1920 1080" style="enable-background:new 0 0 1920 1080;" xml:space="preserve">
<style type="text/css">
	.st0{fill:{BACKGROUND};}
	.st1{fill-rule:evenodd;clip-rule:evenodd;fill:{FOREGROUND1};}
	.st2{fill-rule:evenodd;clip-rule:evenodd;fill:{FOREGROUND2};}
	.st3{fill-rule:evenodd;clip-rule:evenodd;fill:{FOREGROUND3};}
</style>
<rect class="st0" width="1920" height="1080"/>
<g>
	<g id="g5680">
		<path id="path2973" class="st1" d="M732.1,681.9c0.1-20.1,17.2-48.2,41.5-73.8c16.2-17.1,32.8-32,68.7-62.7
			c-24.9-13.7-63.6-30.1-83-51.7c-7.2-8-20.2-26.1-17.7-50.2c5.1-49.2,65.9-124,152.3-139.8c28.7-5.3,61.8-1.5,88.9,10.8
			c85.2,38.3,189.5,133.5,202.3,180c4.5,16.4,3.6,42.4-4.1,57c-9.6,18-43,54.6-88.7,92.4c-71.7,59.2-172.1,122.8-247.1,133.5
			c-24.2,3.5-49-0.1-66.4-10c-27.2-15.3-36.2-35.8-39.4-42C731.1,709.1,732.1,688.4,732.1,681.9L732.1,681.9z M933.8,455.8
			c0.9-11.4,45.7-0.1,42.9,9C973.7,474.3,932.8,468.8,933.8,455.8L933.8,455.8z"/>
		<g id="mid">
			<path id="path2975" class="st2" d="M866.6,526.6c-23.6,19.9-39.2,33.3-58.8,51.2c-47.3,43.2-79.4,76.1-62.8,121.1
				c19.1,51.9,61,49.2,110.1,39.6c126.6-25,334.7-184.9,324.1-244c-8.6-47.8-124.8-142.9-193.7-176.7c-21.5-10.6-46.3-16-71.1-14.9
				c-94.6,4.5-168.6,90.6-164.8,137.3C753.1,485.6,867.9,525.2,866.6,526.6L866.6,526.6z M852.4,368c-28.5,31.7-10.3,93,37,126.4
				c55.3,39.1,144.8,46.2,162.6,16c33.2-56.2-3.1-115.7-57.2-142.2C941.2,342,870.1,348.3,852.4,368C852.4,368,852.4,368,852.4,368z
				"/>
			<path id="path4976" class="st2" d="M949.5,493.1c40,5.6,74.4-10.5,79.8-49.9c4.1-30.1-41.9-62.9-69.6-70.5
				c-23.1-6.3-73.3,1.8-76.7,45.5C879.5,463.6,926.2,489.8,949.5,493.1z M929.9,417.5c-26.3,40.7,38.2,53.2,48,45.8
				C1020.4,431.3,941.5,399.6,929.9,417.5L929.9,417.5z"/>
		</g>
		<path id="path2977" class="st3" d="M906.6,313.7c-46.5,4.9-55.4,10.9-97.5,42.7c-14.1,10.7-40.1,36.7-46.7,67.5
			c-2.5,11.7,0.5,21.9,8.9,29c27.1,22.8,72.4,41.2,109.5,59.1c10.9,5.2,3.7,14.7-13.9,29.9c-44.3,38.4-104.2,85-108.4,120.6
			c-2,16.8,3.8,39.5,24.1,51.2c23.8,13.6,73.1,4.7,106.1-7.5c48.1-17.9,111.4-57.5,161.6-96.4c52.2-40.4,100.8-91.8,103.2-100.2
			c2.9-10.3,2.7-19.8-3-30.7c-8.9-17.2-20.9-29.9-33.7-44.2c-34.4-36.3-70.8-68.2-114.4-92.6C970.9,324.4,943.2,309.9,906.6,313.7
			L906.6,313.7z M974.9,395.1c33.6,16.2,68.1,58.9-0.3,83.4c-18.6,6.7-77.5-16.4-75.7-47.9C901.5,384.1,933.9,375.2,974.9,395.1
			L974.9,395.1L974.9,395.1z"/>
	</g>
</g>
</svg>
